<svg xmlns="http://www.w3.org/2000/svg" version="1.1" xmlns:xlink="http://www.w3.org/1999/xlink" viewBox="0 0 200 200"><rect width="200" height="200" fill="url('#gradient')"></rect><defs><linearGradient id="gradient" gradientTransform="rotate(45 0.5 0.5)"><stop offset="0%" stop-color="#ffffff"></stop><stop offset="100%" stop-color="#ffffff"></stop></linearGradient></defs><g><g fill="#6a1712" transform="matrix(7.288256227758007,0,0,7.288256227758007,7.438954043218672,151.823757432958)" stroke="#6a1712" stroke-width="0.2"><path d="M12.24-14.22L12.24-11.57L7.97-11.57L7.97 0L4.54 0L4.54-11.57L0.35-11.57L0.35-14.22L12.24-14.22ZM25.05-7.60L25.05-1.76Q24.26-0.88 22.73-0.34Q21.21 0.20 19.39 0.20L19.39 0.20Q16.60 0.20 14.93-1.51Q13.26-3.22 13.14-6.27L13.14-6.27L13.13-7.50Q13.13-9.60 13.88-11.17Q14.62-12.73 16.00-13.58Q17.38-14.42 19.20-14.42L19.20-14.42Q21.86-14.42 23.33-13.21Q24.79-11.99 25.04-9.58L25.04-9.58L21.74-9.58Q21.56-10.77 20.98-11.28Q20.39-11.79 19.32-11.79L19.32-11.79Q18.03-11.79 17.32-10.69Q16.62-9.60 16.61-7.57L16.61-7.57L16.61-6.71Q16.61-4.58 17.34-3.51Q18.07-2.44 19.63-2.44L19.63-2.44Q20.97-2.44 21.62-3.04L21.62-3.04L21.62-5.24L19.24-5.24L19.24-7.60L25.05-7.60Z"></path></g></g></svg>